<?xml version="1.0" standalone="no"?>
<!DOCTYPE svg PUBLIC "-//W3C//DTD SVG 20010904//EN"
 "http://www.w3.org/TR/2001/REC-SVG-20010904/DTD/svg10.dtd">
<svg version="1.0" xmlns="http://www.w3.org/2000/svg"
 width="256.000000pt" height="256.000000pt" viewBox="0 0 256.000000 256.000000"
 preserveAspectRatio="xMidYMid meet">
<metadata>
Created by potrace 1.14, written by Peter Selinger 2001-2017
</metadata>
<g transform="translate(0.000000,256.000000) scale(0.100000,-0.100000)"
fill="#000000" stroke="none">
<path d="M1003 1970 c-357 -54 -630 -200 -734 -392 -32 -59 -34 -69 -34 -158
0 -83 3 -102 28 -151 101 -206 411 -368 787 -410 150 -17 437 -6 565 21 188
40 346 104 460 185 462 331 169 800 -565 905 -168 24 -345 24 -507 0z m481
-86 c27 -4 44 -9 39 -13 -6 -3 -16 -33 -24 -66 -16 -67 -37 -82 -67 -45 -15
18 -24 21 -49 16 -18 -4 -37 -14 -43 -21 -10 -12 -15 -11 -31 8 l-19 22 -24
-27 c-14 -16 -30 -36 -35 -45 -9 -16 -13 -15 -36 15 -30 37 -51 40 -103 13
-45 -23 -66 -45 -92 -97 -14 -29 -19 -34 -20 -18 -1 54 -60 55 -78 1 l-10 -32
-1 41 c-1 40 -2 42 -43 52 -49 13 -58 9 -58 -24 0 -13 -4 -24 -9 -24 -5 0 -16
-3 -25 -6 -23 -9 -21 26 5 87 36 82 0 96 -87 33 -23 -17 -33 -34 -38 -64 -9
-60 -33 -113 -48 -107 -38 13 -67 -51 -32 -71 41 -23 -54 -134 -161 -187 l-50
-26 -3 22 c-2 12 1 26 7 32 6 6 11 18 11 27 0 21 -34 53 -45 43 -4 -5 -5 15
-1 42 26 201 379 394 780 425 109 8 293 5 390 -6z m208 -39 c228 -54 430 -181
494 -312 35 -70 37 -147 6 -216 -37 -83 -162 -191 -284 -244 -26 -12 -28 -11
-34 15 -18 86 -82 211 -145 282 l-30 35 -24 -29 c-35 -44 -107 -194 -121 -254
-14 -59 -16 -57 55 -65 56 -7 81 5 73 35 -4 17 -2 20 12 15 10 -4 24 -7 32 -7
10 0 14 -8 12 -22 -3 -21 2 -23 52 -28 l55 -5 -85 -27 c-84 -26 -191 -51 -195
-46 -2 2 -17 46 -35 98 -41 123 -136 320 -154 320 -19 0 -46 -35 -75 -98 -14
-29 -28 -52 -32 -52 -4 0 -25 32 -45 71 -40 75 -55 89 -78 69 -21 -17 -98
-180 -142 -300 -21 -58 -38 -106 -39 -108 -7 -10 -255 55 -271 71 -4 4 16 7
45 7 52 0 53 1 47 25 -6 23 -4 25 28 25 28 0 33 -3 29 -19 -6 -25 14 -31 81
-24 49 5 56 8 56 28 0 51 -81 232 -135 300 -15 20 -16 19 -54 -23 -48 -55
-116 -181 -132 -247 -6 -27 -13 -52 -15 -53 -11 -14 -254 145 -254 166 0 4 22
19 48 33 26 15 75 47 109 72 52 39 64 53 73 89 27 109 50 118 50 19 0 -78 13
-101 60 -101 24 0 28 5 33 33 5 39 -1 57 -20 57 -11 0 -13 12 -11 53 3 48 5
52 27 49 26 -4 41 12 41 45 0 38 29 15 36 -29 9 -55 43 -102 77 -106 27 -3 27
-3 27 55 0 32 5 65 10 73 8 12 10 11 10 -8 0 -12 6 -25 14 -28 8 -3 18 -19 21
-34 9 -39 42 -80 65 -80 27 0 78 46 100 91 28 53 26 63 -11 55 l-30 -6 38 44
c35 41 39 43 47 25 5 -10 15 -19 23 -19 18 0 17 -7 -14 -68 -25 -50 -26 -56
-12 -80 20 -35 40 -34 52 3 13 41 14 41 38 12 11 -15 29 -27 39 -27 24 0 41
29 30 51 -12 21 58 154 81 155 14 1 16 -16 15 -127 -1 -175 15 -189 96 -83 52
67 51 86 -3 79 l-42 -5 7 52 c11 78 30 118 58 118 13 0 29 -5 35 -11 16 -16
35 24 31 64 -3 29 -6 32 -35 29 -38 -2 -40 4 -16 53 19 40 20 40 105 20z
m-356 -227 c-17 -45 -53 -94 -61 -86 -9 9 25 92 47 115 29 31 34 21 14 -29z
m-226 39 c0 -2 -10 -12 -22 -23 l-23 -19 19 23 c18 21 26 27 26 19z m-24 -133
c-3 -9 -6 -20 -6 -25 0 -15 -17 -10 -24 8 -4 9 -1 20 6 25 21 12 31 9 24 -8z
m-238 -199 c14 -30 15 -46 5 -44 -5 1 -11 0 -15 -1 -5 -1 -21 -3 -37 -4 -26
-1 -28 1 -19 19 13 25 39 55 48 55 4 0 12 -11 18 -25z m353 -46 c25 -68 31
-91 18 -84 -5 4 -9 1 -9 -4 0 -6 -7 -11 -16 -11 -8 0 -13 4 -10 8 3 5 -9 6
-26 4 -26 -4 -30 -2 -25 12 12 31 -9 16 -26 -19 -15 -32 -37 -47 -37 -26 0 13
49 122 72 159 24 39 31 35 59 -39z m219 -32 c0 -13 -5 -17 -19 -12 -25 8 -51
-22 -30 -36 10 -6 1 -9 -28 -9 -24 0 -43 4 -43 9 0 12 50 123 63 139 8 11 16
4 33 -30 13 -24 23 -51 24 -61z m308 73 c12 -16 22 -33 22 -37 0 -13 -82 -35
-92 -25 -9 9 29 92 43 92 3 0 15 -13 27 -30z m-284 -115 c3 -9 0 -15 -9 -15
-9 0 -12 6 -9 15 4 8 7 15 9 15 2 0 5 -7 9 -15z m-159 -35 c-3 -5 -12 -10 -18
-10 -7 0 -6 4 3 10 19 12 23 12 15 0z m-125 -201 c9 -16 7 -19 -10 -19 -15 0
-20 7 -20 26 0 27 14 25 30 -7z m240 6 c0 -19 -5 -25 -20 -25 -20 0 -20 1 -3
25 22 30 23 30 23 0z"/>
<path d="M1635 1658 c-11 -27 -11 -37 -1 -53 11 -16 10 -26 -2 -57 -28 -72 9
-133 67 -111 29 11 30 10 36 -29 4 -22 13 -42 21 -45 18 -7 99 25 120 48 16
17 16 19 -2 25 -11 3 -27 10 -37 15 -10 5 -22 7 -27 4 -23 -14 -7 58 25 119
47 90 47 94 -19 91 -39 -2 -56 1 -60 11 -4 9 -22 14 -56 14 -48 0 -52 -2 -65
-32z m96 -121 l-21 -21 0 21 c0 12 5 34 12 49 l12 26 9 -27 c8 -22 5 -31 -12
-48z"/>
<path d="M1946 1568 c-23 -33 -21 -77 5 -86 19 -7 19 -10 -15 -54 -19 -25 -47
-54 -61 -65 -24 -17 -25 -22 -19 -76 4 -33 12 -57 18 -57 7 0 28 26 47 57 18
31 54 79 79 106 36 38 54 49 86 54 33 4 45 1 72 -22 27 -23 33 -24 38 -11 10
27 -6 102 -27 125 -24 26 -21 25 -68 1 -33 -16 -40 -17 -45 -5 -3 8 -22 22
-43 32 -21 9 -41 19 -45 20 -3 2 -13 -6 -22 -19z"/>
<path d="M530 712 c0 -4 8 -12 18 -19 10 -6 31 -45 46 -87 23 -62 32 -76 50
-76 17 0 24 11 40 63 l18 62 22 -60 c16 -45 26 -61 43 -63 18 -3 24 6 42 55
31 85 45 108 66 108 18 0 20 -8 23 -70 2 -57 0 -72 -14 -82 -15 -11 -2 -13 79
-13 l97 0 0 30 c0 32 -14 40 -24 15 -6 -18 -45 -35 -63 -28 -15 6 -18 73 -3
73 5 0 18 -10 30 -22 l20 -22 0 49 0 49 -20 -22 c-29 -31 -40 -27 -40 13 0 30
3 35 24 35 14 0 32 -10 40 -22 14 -19 16 -19 22 -5 16 42 1 47 -131 47 -77 0
-125 -4 -125 -10 0 -5 7 -10 16 -10 12 0 14 -7 9 -32 -4 -18 -12 -42 -18 -52
-8 -17 -13 -12 -32 40 -16 44 -27 60 -43 62 -19 3 -24 -5 -38 -58 -19 -65 -25
-66 -44 -5 -10 29 -10 40 -1 43 30 10 5 22 -49 22 -33 0 -60 -3 -60 -8z"/>
<path d="M1070 711 c0 -5 7 -11 15 -15 22 -8 21 -123 -2 -148 -15 -17 -13 -18
66 -18 45 0 91 5 102 10 26 14 24 55 -3 75 -22 15 -22 17 -5 29 28 21 21 53
-14 65 -38 13 -159 15 -159 2z m115 -41 c0 -13 -6 -25 -12 -27 -9 -3 -13 6
-13 27 0 21 4 30 13 28 6 -3 12 -15 12 -28z m8 -72 c13 -20 2 -48 -18 -48 -11
0 -15 10 -15 36 0 37 14 42 33 12z"/>
<path d="M1431 703 c-5 -10 -21 -47 -35 -82 -14 -35 -34 -70 -43 -77 -16 -12
-13 -13 27 -14 34 0 41 3 32 12 -7 7 -12 20 -12 30 0 14 8 18 34 18 39 0 53
-26 26 -47 -12 -10 10 -12 110 -12 106 0 122 2 108 13 -10 7 -18 25 -18 40 0
22 4 26 28 26 67 0 97 69 42 97 -30 15 -160 17 -160 3 0 -5 5 -10 10 -10 13 0
13 -147 1 -154 -21 -13 -38 9 -69 89 -26 65 -38 85 -53 85 -10 0 -22 -8 -28
-17z m257 -40 c2 -20 -2 -32 -12 -36 -13 -5 -16 2 -16 34 0 48 23 50 28 2z
m-239 -45 c1 -5 -6 -8 -14 -8 -16 0 -19 9 -8 36 6 16 7 16 14 -2 4 -10 8 -22
8 -26z"/>
<path d="M1770 710 c0 -5 5 -10 10 -10 15 0 13 -143 -2 -158 -9 -9 2 -12 53
-12 55 1 62 2 47 14 -10 7 -18 25 -18 40 0 22 4 26 28 26 67 0 97 69 42 97
-30 15 -160 17 -160 3z m118 -47 c2 -20 -2 -32 -12 -36 -13 -5 -16 2 -16 34 0
48 23 50 28 2z"/>
</g>
</svg>
